<svg xmlns="http://www.w3.org/2000/svg" width="10" height="12" viewBox="0 0 10 12">
  <path id="Path_27" data-name="Path 27" d="M16.63,13.131c-.056.058-.27.306-.468.51a21.683,21.683,0,0,1-5.795,4.024A4.627,4.627,0,0,1,9.188,18a1.933,1.933,0,0,1-.895-.218,1.874,1.874,0,0,1-.8-.9,9.911,9.911,0,0,1-.256-1.064A23.955,23.955,0,0,1,7,12.008a27.84,27.84,0,0,1,.213-3.689,8.481,8.481,0,0,1,.341-1.327A1.785,1.785,0,0,1,9.132,6h.056a4.875,4.875,0,0,1,1.321.409,21.7,21.7,0,0,1,5.668,3.966,5.65,5.65,0,0,1,.482.554A1.783,1.783,0,0,1,17,11.993a1.873,1.873,0,0,1-.37,1.138Z" transform="translate(-7 -6)" fill="#fff"/>
</svg>
