<svg xmlns="http://www.w3.org/2000/svg" width="372.411" height="5" viewBox="0 0 372.411 5">
  <g id="Path_2416" data-name="Path 2416" fill="#335f32">
    <path d="M 343.2581176757812 4.500022411346436 L 29.1534309387207 4.500022411346436 C 21.38838577270508 4.500022411346436 14.09152221679688 4.084067821502686 8.607068061828613 3.328840732574463 C 5.958976745605469 2.96420431137085 3.886022329330444 2.54152250289917 2.445840358734131 2.072658777236938 C 1.170491218566895 1.657434582710266 0.7304096221923828 1.310265183448792 0.5789920091629028 1.126535534858704 C 0.895978569984436 1.013598561286926 1.769135236740112 0.8156867027282715 4.132158756256104 0.678204357624054 C 6.193522453308105 0.5582952499389648 8.990976333618164 0.4999770820140839 12.68434047698975 0.4999770820140839 C 20.80893135070801 0.4999770820140839 31.86138534545898 0.7944316267967224 41.61279678344727 1.054204344749451 C 49.93802261352539 1.2759770154953 57.80152130126953 1.485431671142578 62.72615814208984 1.485431671142578 L 331.0544738769531 1.485431671142578 C 336.7171020507812 1.485431671142578 343.43310546875 1.214795231819153 349.9280090332031 0.9530225396156311 C 355.7093811035156 0.7200679779052734 361.170166015625 0.4999770820140839 365.267333984375 0.4999770820140839 C 367.314697265625 0.4999770820140839 368.8605651855469 0.5543861389160156 369.9932861328125 0.6662952303886414 C 371.281494140625 0.7935568690299988 371.7332458496094 0.9706934094429016 371.8825378417969 1.056090354919434 C 371.79296875 1.20913553237915 371.4294738769531 1.596085667610168 369.9656982421875 2.072658777236938 C 368.5254821777344 2.54152250289917 366.4525756835938 2.96420431137085 363.8044738769531 3.328840732574463 C 358.3199768066406 4.084067821502686 351.0231628417969 4.500022411346436 343.2581176757812 4.500022411346436 Z" stroke="none"/>
    <path d="M 343.2580871582031 4.00001335144043 C 350.5089111328125 4.00001335144043 357.4432067871094 3.630263328552246 362.7836608886719 2.958863496780396 C 365.3563842773438 2.635413408279419 367.44970703125 2.257563352584839 369.0053100585938 1.835813403129578 C 369.80078125 1.620136141777039 370.3431701660156 1.422547101974487 370.7108764648438 1.259151697158813 C 370.4493713378906 1.218384742736816 370.1180114746094 1.177526831626892 369.6993408203125 1.141213417053223 C 368.60400390625 1.046213388442993 367.1542358398438 1.000013470649719 365.2673034667969 1.000013470649719 C 361.1802062988281 1.000013470649719 355.7243957519531 1.219863414764404 349.9482116699219 1.452663421630859 C 343.4483642578125 1.714563488960266 336.7272644042969 1.985413432121277 331.0545043945312 1.985413432121277 L 62.72615051269531 1.985413432121277 C 57.79484939575195 1.985413432121277 49.9281005859375 1.775863409042358 41.5994987487793 1.55401337146759 C 31.85120010375977 1.294313430786133 20.80229949951172 1.000013470649719 12.68434906005859 1.000013470649719 C 9.147149085998535 1.000013470649719 6.440399646759033 1.053463459014893 4.409399509429932 1.163463473320007 C 3.295150279998779 1.223797082901001 2.508216381072998 1.296032786369324 1.954068303108215 1.365653514862061 C 2.305461883544922 1.505715012550354 2.776550531387329 1.665097951889038 3.40619945526123 1.835813403129578 C 4.961849689483643 2.257563352584839 7.055099487304688 2.635413408279419 9.627899169921875 2.958863496780396 C 14.96834945678711 3.630263328552246 21.90264892578125 4.00001335144043 29.15345001220703 4.00001335144043 L 343.2580871582031 4.00001335144043 M 343.2580871582031 5.00001335144043 L 29.15345001220703 5.00001335144043 C 13.05244922637939 5.00001335144043 -4.88281216348696e-07 3.202613353729248 -4.88281216348696e-07 0.9854134321212769 C -4.88281216348696e-07 0.2462565451860428 5.179088592529297 -8.639335646876134e-06 12.68433475494385 -8.639335646876134e-06 C 27.69207954406738 -8.639335646876134e-06 51.99280548095703 0.9854134321212769 62.72615051269531 0.9854134321212769 L 331.0545043945312 0.9854134321212769 C 347.155517578125 0.9854134321212769 372.4114990234375 -1.231780886650085 372.4114990234375 0.9854134321212769 C 372.4114990234375 3.202613353729248 359.3591003417969 5.00001335144043 343.2580871582031 5.00001335144043 Z" stroke="none" fill="#707070"/>
  </g>
</svg>
